<mxfile host="app.diagrams.net" modified="2024-03-14T10:13:23.216Z" agent="Mozilla/5.0 (Windows NT 10.0; Win64; x64; rv:109.0) Gecko/20100101 Firefox/110.0" etag="vIS1FFT4981Mtx9Lb9X-" version="24.0.6" type="github">
  <diagram name="第 1 页" id="Kq7i13FdRKVbxHknDPrD">
    <mxGraphModel dx="796" dy="428" grid="1" gridSize="10" guides="1" tooltips="1" connect="1" arrows="1" fold="1" page="1" pageScale="1" pageWidth="1169" pageHeight="827" math="0" shadow="0">
      <root>
        <mxCell id="0" />
        <mxCell id="1" parent="0" />
        <mxCell id="wMz1uye7BKQEXck0odUJ-29" value="" style="group" vertex="1" connectable="0" parent="1">
          <mxGeometry x="80" y="40" width="200" height="520" as="geometry" />
        </mxCell>
        <mxCell id="wMz1uye7BKQEXck0odUJ-5" value="" style="endArrow=classic;html=1;rounded=0;strokeWidth=1;entryX=0.5;entryY=0;entryDx=0;entryDy=0;" edge="1" parent="wMz1uye7BKQEXck0odUJ-29" target="wMz1uye7BKQEXck0odUJ-3">
          <mxGeometry width="50" height="50" relative="1" as="geometry">
            <mxPoint x="40" as="sourcePoint" />
            <mxPoint x="50" y="50" as="targetPoint" />
          </mxGeometry>
        </mxCell>
        <mxCell id="wMz1uye7BKQEXck0odUJ-3" value="C*H*W" style="rounded=0;whiteSpace=wrap;html=1;flipH=0;flipV=0;container=0;" vertex="1" parent="wMz1uye7BKQEXck0odUJ-29">
          <mxGeometry y="40" width="80" height="40" as="geometry" />
        </mxCell>
        <mxCell id="wMz1uye7BKQEXck0odUJ-6" value="Global pooling" style="rounded=0;whiteSpace=wrap;html=1;container=0;" vertex="1" parent="wMz1uye7BKQEXck0odUJ-29">
          <mxGeometry x="120" y="120" width="80" height="40" as="geometry" />
        </mxCell>
        <mxCell id="wMz1uye7BKQEXck0odUJ-7" value="FC" style="rounded=0;whiteSpace=wrap;html=1;container=0;" vertex="1" parent="wMz1uye7BKQEXck0odUJ-29">
          <mxGeometry x="120" y="200" width="80" height="40" as="geometry" />
        </mxCell>
        <mxCell id="wMz1uye7BKQEXck0odUJ-11" value="" style="endArrow=classic;html=1;rounded=0;exitX=1;exitY=0.5;exitDx=0;exitDy=0;entryX=0.5;entryY=0;entryDx=0;entryDy=0;" edge="1" parent="wMz1uye7BKQEXck0odUJ-29" source="wMz1uye7BKQEXck0odUJ-3" target="wMz1uye7BKQEXck0odUJ-6">
          <mxGeometry width="50" height="50" relative="1" as="geometry">
            <mxPoint x="150" y="90" as="sourcePoint" />
            <mxPoint x="200" y="40" as="targetPoint" />
          </mxGeometry>
        </mxCell>
        <mxCell id="wMz1uye7BKQEXck0odUJ-13" value="FC" style="rounded=0;whiteSpace=wrap;html=1;container=0;" vertex="1" parent="wMz1uye7BKQEXck0odUJ-29">
          <mxGeometry x="120" y="280" width="80" height="40" as="geometry" />
        </mxCell>
        <mxCell id="wMz1uye7BKQEXck0odUJ-14" value="Sigmoid" style="rounded=0;whiteSpace=wrap;html=1;container=0;" vertex="1" parent="wMz1uye7BKQEXck0odUJ-29">
          <mxGeometry x="120" y="360" width="80" height="40" as="geometry" />
        </mxCell>
        <mxCell id="wMz1uye7BKQEXck0odUJ-15" value="Scale" style="rounded=0;whiteSpace=wrap;html=1;container=0;" vertex="1" parent="wMz1uye7BKQEXck0odUJ-29">
          <mxGeometry y="440" width="80" height="40" as="geometry" />
        </mxCell>
        <mxCell id="wMz1uye7BKQEXck0odUJ-20" value="" style="endArrow=classic;html=1;rounded=0;exitX=0.5;exitY=1;exitDx=0;exitDy=0;entryX=0.5;entryY=0;entryDx=0;entryDy=0;" edge="1" parent="wMz1uye7BKQEXck0odUJ-29" source="wMz1uye7BKQEXck0odUJ-6" target="wMz1uye7BKQEXck0odUJ-7">
          <mxGeometry width="50" height="50" relative="1" as="geometry">
            <mxPoint x="310" y="260" as="sourcePoint" />
            <mxPoint x="360" y="210" as="targetPoint" />
          </mxGeometry>
        </mxCell>
        <mxCell id="wMz1uye7BKQEXck0odUJ-21" value="" style="endArrow=classic;html=1;rounded=0;exitX=0.5;exitY=1;exitDx=0;exitDy=0;entryX=0.5;entryY=0;entryDx=0;entryDy=0;" edge="1" parent="wMz1uye7BKQEXck0odUJ-29">
          <mxGeometry width="50" height="50" relative="1" as="geometry">
            <mxPoint x="159.5" y="240" as="sourcePoint" />
            <mxPoint x="159.5" y="280" as="targetPoint" />
          </mxGeometry>
        </mxCell>
        <mxCell id="wMz1uye7BKQEXck0odUJ-22" value="" style="endArrow=classic;html=1;rounded=0;exitX=0.5;exitY=1;exitDx=0;exitDy=0;entryX=0.5;entryY=0;entryDx=0;entryDy=0;" edge="1" parent="wMz1uye7BKQEXck0odUJ-29">
          <mxGeometry width="50" height="50" relative="1" as="geometry">
            <mxPoint x="159.5" y="320" as="sourcePoint" />
            <mxPoint x="159.5" y="360" as="targetPoint" />
          </mxGeometry>
        </mxCell>
        <mxCell id="wMz1uye7BKQEXck0odUJ-24" value="" style="endArrow=classic;html=1;rounded=0;exitX=0.5;exitY=1;exitDx=0;exitDy=0;entryX=1;entryY=0.5;entryDx=0;entryDy=0;" edge="1" parent="wMz1uye7BKQEXck0odUJ-29" source="wMz1uye7BKQEXck0odUJ-14" target="wMz1uye7BKQEXck0odUJ-15">
          <mxGeometry width="50" height="50" relative="1" as="geometry">
            <mxPoint x="310" y="360" as="sourcePoint" />
            <mxPoint x="360" y="310" as="targetPoint" />
          </mxGeometry>
        </mxCell>
        <mxCell id="wMz1uye7BKQEXck0odUJ-26" value="" style="endArrow=classic;html=1;rounded=0;strokeWidth=1;exitX=0.5;exitY=1;exitDx=0;exitDy=0;" edge="1" parent="wMz1uye7BKQEXck0odUJ-29" source="wMz1uye7BKQEXck0odUJ-15">
          <mxGeometry width="50" height="50" relative="1" as="geometry">
            <mxPoint x="60" y="500" as="sourcePoint" />
            <mxPoint x="40" y="520" as="targetPoint" />
          </mxGeometry>
        </mxCell>
        <mxCell id="wMz1uye7BKQEXck0odUJ-28" value="" style="endArrow=classic;html=1;rounded=0;exitX=0.5;exitY=1;exitDx=0;exitDy=0;entryX=0.5;entryY=0;entryDx=0;entryDy=0;" edge="1" parent="wMz1uye7BKQEXck0odUJ-29" source="wMz1uye7BKQEXck0odUJ-3" target="wMz1uye7BKQEXck0odUJ-15">
          <mxGeometry width="50" height="50" relative="1" as="geometry">
            <mxPoint x="310" y="270" as="sourcePoint" />
            <mxPoint x="360" y="220" as="targetPoint" />
          </mxGeometry>
        </mxCell>
      </root>
    </mxGraphModel>
  </diagram>
</mxfile>
